<mxfile host="app.diagrams.net" modified="2024-05-04T15:48:58.113Z" agent="Mozilla/5.0 (Windows NT 10.0; Win64; x64) AppleWebKit/537.36 (KHTML, like Gecko) Chrome/124.0.0.0 Safari/537.36 Edg/124.0.0.0" etag="EyuIZfTT6fCEoDgIldZf" version="24.3.1" type="github">
  <diagram name="Trang-1" id="ggv2shcuDMZBin_PITtZ">
    <mxGraphModel dx="2831" dy="986" grid="1" gridSize="10" guides="1" tooltips="1" connect="1" arrows="1" fold="1" page="1" pageScale="1" pageWidth="827" pageHeight="1169" math="0" shadow="0">
      <root>
        <mxCell id="0" />
        <mxCell id="1" parent="0" />
        <mxCell id="0IQWGOYTsPo2K3X1dr-d-3" value="" style="edgeStyle=orthogonalEdgeStyle;rounded=0;orthogonalLoop=1;jettySize=auto;html=1;" edge="1" parent="1" source="0IQWGOYTsPo2K3X1dr-d-1" target="0IQWGOYTsPo2K3X1dr-d-2">
          <mxGeometry relative="1" as="geometry" />
        </mxCell>
        <mxCell id="0IQWGOYTsPo2K3X1dr-d-1" value="Bắt đầu" style="rounded=1;whiteSpace=wrap;html=1;fontSize=16;" vertex="1" parent="1">
          <mxGeometry x="-30" y="70" width="120" height="60" as="geometry" />
        </mxCell>
        <mxCell id="0IQWGOYTsPo2K3X1dr-d-5" value="" style="edgeStyle=orthogonalEdgeStyle;rounded=0;orthogonalLoop=1;jettySize=auto;html=1;" edge="1" parent="1" source="0IQWGOYTsPo2K3X1dr-d-2" target="0IQWGOYTsPo2K3X1dr-d-4">
          <mxGeometry relative="1" as="geometry" />
        </mxCell>
        <mxCell id="0IQWGOYTsPo2K3X1dr-d-2" value="Khách hàng đến khám tại thẩm mỹ viện" style="rounded=0;whiteSpace=wrap;html=1;" vertex="1" parent="1">
          <mxGeometry x="190" y="70" width="130" height="60" as="geometry" />
        </mxCell>
        <mxCell id="0IQWGOYTsPo2K3X1dr-d-7" value="" style="edgeStyle=orthogonalEdgeStyle;rounded=0;orthogonalLoop=1;jettySize=auto;html=1;" edge="1" parent="1" source="0IQWGOYTsPo2K3X1dr-d-4" target="0IQWGOYTsPo2K3X1dr-d-6">
          <mxGeometry relative="1" as="geometry" />
        </mxCell>
        <mxCell id="0IQWGOYTsPo2K3X1dr-d-4" value="Lễ tân tiếp đón và hỏi thông tin về khách hàng" style="rounded=0;whiteSpace=wrap;html=1;" vertex="1" parent="1">
          <mxGeometry x="479.5" y="70" width="120" height="60" as="geometry" />
        </mxCell>
        <mxCell id="0IQWGOYTsPo2K3X1dr-d-29" value="" style="edgeStyle=orthogonalEdgeStyle;rounded=0;orthogonalLoop=1;jettySize=auto;html=1;" edge="1" parent="1" source="0IQWGOYTsPo2K3X1dr-d-6" target="0IQWGOYTsPo2K3X1dr-d-28">
          <mxGeometry relative="1" as="geometry" />
        </mxCell>
        <mxCell id="0IQWGOYTsPo2K3X1dr-d-6" value="Nhân viên nhập thông tin khách hàng" style="shape=trapezoid;perimeter=trapezoidPerimeter;whiteSpace=wrap;html=1;fixedSize=1;" vertex="1" parent="1">
          <mxGeometry x="750" y="70" width="200" height="60" as="geometry" />
        </mxCell>
        <mxCell id="0IQWGOYTsPo2K3X1dr-d-15" value="" style="edgeStyle=orthogonalEdgeStyle;rounded=0;orthogonalLoop=1;jettySize=auto;html=1;" edge="1" parent="1" source="0IQWGOYTsPo2K3X1dr-d-8" target="0IQWGOYTsPo2K3X1dr-d-14">
          <mxGeometry relative="1" as="geometry" />
        </mxCell>
        <mxCell id="0IQWGOYTsPo2K3X1dr-d-27" value="" style="edgeStyle=orthogonalEdgeStyle;rounded=0;orthogonalLoop=1;jettySize=auto;html=1;entryX=1;entryY=0.5;entryDx=0;entryDy=0;exitX=0;exitY=0.5;exitDx=0;exitDy=0;" edge="1" parent="1" source="0IQWGOYTsPo2K3X1dr-d-8" target="0IQWGOYTsPo2K3X1dr-d-26">
          <mxGeometry relative="1" as="geometry">
            <mxPoint x="442.11476190476196" y="584.0666666666666" as="sourcePoint" />
            <mxPoint x="290" y="419" as="targetPoint" />
            <Array as="points">
              <mxPoint x="410" y="450" />
              <mxPoint x="410" y="390" />
            </Array>
          </mxGeometry>
        </mxCell>
        <mxCell id="0IQWGOYTsPo2K3X1dr-d-8" value="Khách hàng muốn khám bệnh&lt;div&gt;&amp;nbsp;về da ?&lt;/div&gt;" style="rhombus;whiteSpace=wrap;html=1;rounded=0;" vertex="1" parent="1">
          <mxGeometry x="427.01" y="380" width="220" height="140" as="geometry" />
        </mxCell>
        <mxCell id="0IQWGOYTsPo2K3X1dr-d-17" value="" style="edgeStyle=orthogonalEdgeStyle;rounded=0;orthogonalLoop=1;jettySize=auto;html=1;" edge="1" parent="1" source="0IQWGOYTsPo2K3X1dr-d-14" target="0IQWGOYTsPo2K3X1dr-d-16">
          <mxGeometry relative="1" as="geometry" />
        </mxCell>
        <mxCell id="0IQWGOYTsPo2K3X1dr-d-14" value="Khách hàng cần tư vấn&#xa; chuyên sâu và khám thẩm mỹ?" style="rhombus;whiteSpace=wrap;verticalAlign=middle;labelPosition=center;verticalLabelPosition=middle;align=center;horizontal=1;" vertex="1" parent="1">
          <mxGeometry x="422.01" y="720" width="230" height="130" as="geometry" />
        </mxCell>
        <mxCell id="0IQWGOYTsPo2K3X1dr-d-21" value="" style="edgeStyle=orthogonalEdgeStyle;rounded=0;orthogonalLoop=1;jettySize=auto;html=1;" edge="1" parent="1" source="0IQWGOYTsPo2K3X1dr-d-16" target="0IQWGOYTsPo2K3X1dr-d-20">
          <mxGeometry relative="1" as="geometry" />
        </mxCell>
        <mxCell id="0IQWGOYTsPo2K3X1dr-d-16" value="khách hàng tái khám hoặc&lt;div&gt;&amp;nbsp;sử dụng dịch vụ 2 lần trở đi&lt;/div&gt;" style="shape=parallelogram;perimeter=parallelogramPerimeter;fixedSize=1;size=55;labelPosition=center;verticalLabelPosition=middle;align=center;verticalAlign=middle;textDirection=ltr;whiteSpace=wrap;html=1;spacingTop=0;spacingLeft=-4;spacingBottom=0;spacingRight=-3;" vertex="1" parent="1">
          <mxGeometry x="785" y="655" width="215" height="120" as="geometry" />
        </mxCell>
        <mxCell id="0IQWGOYTsPo2K3X1dr-d-18" value="Không" style="text;html=1;align=center;verticalAlign=middle;whiteSpace=wrap;rounded=0;rotation=0;" vertex="1" parent="1">
          <mxGeometry x="695" y="680" width="60" height="30" as="geometry" />
        </mxCell>
        <mxCell id="0IQWGOYTsPo2K3X1dr-d-19" value="Không" style="text;html=1;align=center;verticalAlign=middle;whiteSpace=wrap;rounded=0;rotation=90;" vertex="1" parent="1">
          <mxGeometry x="530" y="670" width="60" height="30" as="geometry" />
        </mxCell>
        <mxCell id="0IQWGOYTsPo2K3X1dr-d-20" value="Khách hàng muốn diều trị?" style="rhombus;whiteSpace=wrap;html=1;" vertex="1" parent="1">
          <mxGeometry x="797.5" y="850" width="190" height="100" as="geometry" />
        </mxCell>
        <mxCell id="0IQWGOYTsPo2K3X1dr-d-46" value="" style="edgeStyle=orthogonalEdgeStyle;rounded=0;orthogonalLoop=1;jettySize=auto;html=1;" edge="1" parent="1" source="0IQWGOYTsPo2K3X1dr-d-26" target="0IQWGOYTsPo2K3X1dr-d-44">
          <mxGeometry relative="1" as="geometry" />
        </mxCell>
        <mxCell id="0IQWGOYTsPo2K3X1dr-d-26" value="Điều dưỡng đưa khách vào phòng để bác sĩ khám&amp;nbsp;&lt;div&gt;(&lt;span style=&quot;background-color: initial;&quot;&gt;theo số thứ tự)&lt;/span&gt;&lt;/div&gt;" style="rounded=0;whiteSpace=wrap;html=1;" vertex="1" parent="1">
          <mxGeometry x="190" y="355" width="170" height="70" as="geometry" />
        </mxCell>
        <mxCell id="0IQWGOYTsPo2K3X1dr-d-31" value="" style="edgeStyle=orthogonalEdgeStyle;rounded=0;orthogonalLoop=1;jettySize=auto;html=1;" edge="1" parent="1" source="0IQWGOYTsPo2K3X1dr-d-28" target="0IQWGOYTsPo2K3X1dr-d-30">
          <mxGeometry relative="1" as="geometry" />
        </mxCell>
        <mxCell id="0IQWGOYTsPo2K3X1dr-d-28" value="Thông tin được lưu vào&amp;nbsp;&lt;div&gt;cơ sở dữ liệu của&amp;nbsp;&lt;/div&gt;&lt;div&gt;thẩm mỹ viện.&lt;/div&gt;" style="shape=dataStorage;whiteSpace=wrap;html=1;fixedSize=1;" vertex="1" parent="1">
          <mxGeometry x="755" y="190" width="190" height="80" as="geometry" />
        </mxCell>
        <mxCell id="0IQWGOYTsPo2K3X1dr-d-52" value="" style="edgeStyle=orthogonalEdgeStyle;rounded=0;orthogonalLoop=1;jettySize=auto;html=1;" edge="1" parent="1" source="0IQWGOYTsPo2K3X1dr-d-30" target="0IQWGOYTsPo2K3X1dr-d-37">
          <mxGeometry relative="1" as="geometry" />
        </mxCell>
        <mxCell id="0IQWGOYTsPo2K3X1dr-d-65" value="" style="edgeStyle=orthogonalEdgeStyle;rounded=0;orthogonalLoop=1;jettySize=auto;html=1;" edge="1" parent="1" source="0IQWGOYTsPo2K3X1dr-d-30" target="0IQWGOYTsPo2K3X1dr-d-64">
          <mxGeometry relative="1" as="geometry" />
        </mxCell>
        <mxCell id="0IQWGOYTsPo2K3X1dr-d-30" value="Xuất hóa đơn ,xuất phiếu khám bệnh." style="shape=document;whiteSpace=wrap;html=1;boundedLbl=1;" vertex="1" parent="1">
          <mxGeometry x="755" y="320" width="190" height="120" as="geometry" />
        </mxCell>
        <mxCell id="0IQWGOYTsPo2K3X1dr-d-33" value="" style="endArrow=none;dashed=1;html=1;dashPattern=1 3;strokeWidth=2;rounded=0;exitX=1;exitY=0.25;exitDx=0;exitDy=0;entryX=0;entryY=0.5;entryDx=0;entryDy=0;" edge="1" parent="1" source="0IQWGOYTsPo2K3X1dr-d-30" target="0IQWGOYTsPo2K3X1dr-d-34">
          <mxGeometry width="50" height="50" relative="1" as="geometry">
            <mxPoint x="840" y="270" as="sourcePoint" />
            <mxPoint x="1010" y="380" as="targetPoint" />
          </mxGeometry>
        </mxCell>
        <mxCell id="0IQWGOYTsPo2K3X1dr-d-34" value="" style="rounded=0;whiteSpace=wrap;html=1;" vertex="1" parent="1">
          <mxGeometry x="1000" y="220" width="170" height="90" as="geometry" />
        </mxCell>
        <mxCell id="0IQWGOYTsPo2K3X1dr-d-35" value="Máy tính" style="rounded=1;whiteSpace=wrap;html=1;" vertex="1" parent="1">
          <mxGeometry x="1030" y="230" width="110" height="30" as="geometry" />
        </mxCell>
        <mxCell id="0IQWGOYTsPo2K3X1dr-d-36" value="Máy in" style="rounded=1;whiteSpace=wrap;html=1;" vertex="1" parent="1">
          <mxGeometry x="1030" y="270" width="110" height="30" as="geometry" />
        </mxCell>
        <mxCell id="0IQWGOYTsPo2K3X1dr-d-39" value="" style="edgeStyle=orthogonalEdgeStyle;rounded=0;orthogonalLoop=1;jettySize=auto;html=1;" edge="1" parent="1" source="0IQWGOYTsPo2K3X1dr-d-37" target="0IQWGOYTsPo2K3X1dr-d-8">
          <mxGeometry relative="1" as="geometry" />
        </mxCell>
        <mxCell id="0IQWGOYTsPo2K3X1dr-d-37" value="Lễ tân đưa phiếu khám cho điều dưỡng" style="rounded=0;whiteSpace=wrap;html=1;" vertex="1" parent="1">
          <mxGeometry x="449.39" y="270" width="175.25" height="60" as="geometry" />
        </mxCell>
        <mxCell id="0IQWGOYTsPo2K3X1dr-d-41" value="" style="rounded=0;whiteSpace=wrap;html=1;" vertex="1" parent="1">
          <mxGeometry x="1000" y="70" width="160" height="60" as="geometry" />
        </mxCell>
        <mxCell id="0IQWGOYTsPo2K3X1dr-d-42" value="Máy tính" style="rounded=1;whiteSpace=wrap;html=1;" vertex="1" parent="1">
          <mxGeometry x="1020" y="80" width="120" height="40" as="geometry" />
        </mxCell>
        <mxCell id="0IQWGOYTsPo2K3X1dr-d-43" value="" style="endArrow=none;dashed=1;html=1;dashPattern=1 3;strokeWidth=2;rounded=0;entryX=1;entryY=0.5;entryDx=0;entryDy=0;exitX=0;exitY=0.5;exitDx=0;exitDy=0;" edge="1" parent="1" source="0IQWGOYTsPo2K3X1dr-d-41" target="0IQWGOYTsPo2K3X1dr-d-6">
          <mxGeometry width="50" height="50" relative="1" as="geometry">
            <mxPoint x="890" y="230" as="sourcePoint" />
            <mxPoint x="940" y="180" as="targetPoint" />
          </mxGeometry>
        </mxCell>
        <mxCell id="0IQWGOYTsPo2K3X1dr-d-49" value="" style="edgeStyle=orthogonalEdgeStyle;rounded=0;orthogonalLoop=1;jettySize=auto;html=1;" edge="1" parent="1" source="0IQWGOYTsPo2K3X1dr-d-44" target="0IQWGOYTsPo2K3X1dr-d-48">
          <mxGeometry relative="1" as="geometry" />
        </mxCell>
        <mxCell id="0IQWGOYTsPo2K3X1dr-d-44" value="Bác sĩ khám và kê đơn thuốc&amp;nbsp;" style="rounded=0;whiteSpace=wrap;html=1;" vertex="1" parent="1">
          <mxGeometry x="-40" y="357.5" width="170" height="65" as="geometry" />
        </mxCell>
        <mxCell id="0IQWGOYTsPo2K3X1dr-d-47" value="xuất phiếu khám bệnh" style="text;html=1;align=center;verticalAlign=middle;whiteSpace=wrap;rounded=0;" vertex="1" parent="1">
          <mxGeometry x="690" y="320" width="60" height="30" as="geometry" />
        </mxCell>
        <mxCell id="0IQWGOYTsPo2K3X1dr-d-51" value="" style="edgeStyle=orthogonalEdgeStyle;rounded=0;orthogonalLoop=1;jettySize=auto;html=1;" edge="1" parent="1" source="0IQWGOYTsPo2K3X1dr-d-48" target="0IQWGOYTsPo2K3X1dr-d-50">
          <mxGeometry relative="1" as="geometry" />
        </mxCell>
        <mxCell id="0IQWGOYTsPo2K3X1dr-d-48" value="Bác sĩ nhập đơn thuốc vào&lt;div&gt;&amp;nbsp;khách hàng tương ứng&lt;/div&gt;" style="shape=trapezoid;perimeter=trapezoidPerimeter;whiteSpace=wrap;html=1;fixedSize=1;" vertex="1" parent="1">
          <mxGeometry x="-280" y="347.5" width="190" height="85" as="geometry" />
        </mxCell>
        <mxCell id="0IQWGOYTsPo2K3X1dr-d-56" value="" style="edgeStyle=orthogonalEdgeStyle;rounded=0;orthogonalLoop=1;jettySize=auto;html=1;" edge="1" parent="1" source="0IQWGOYTsPo2K3X1dr-d-50" target="0IQWGOYTsPo2K3X1dr-d-54">
          <mxGeometry relative="1" as="geometry" />
        </mxCell>
        <mxCell id="0IQWGOYTsPo2K3X1dr-d-50" value="Đơn thuốc" style="shape=document;whiteSpace=wrap;html=1;boundedLbl=1;" vertex="1" parent="1">
          <mxGeometry x="-275" y="492.5" width="180" height="107.5" as="geometry" />
        </mxCell>
        <mxCell id="0IQWGOYTsPo2K3X1dr-d-53" value="" style="endArrow=classic;html=1;rounded=0;entryX=0;entryY=0.25;entryDx=0;entryDy=0;exitX=0;exitY=0.5;exitDx=0;exitDy=0;" edge="1" parent="1" source="0IQWGOYTsPo2K3X1dr-d-50" target="0IQWGOYTsPo2K3X1dr-d-28">
          <mxGeometry width="50" height="50" relative="1" as="geometry">
            <mxPoint x="-360" y="533" as="sourcePoint" />
            <mxPoint x="680" y="216.88" as="targetPoint" />
            <Array as="points">
              <mxPoint x="-360" y="546" />
              <mxPoint x="-360" y="210" />
            </Array>
          </mxGeometry>
        </mxCell>
        <mxCell id="0IQWGOYTsPo2K3X1dr-d-58" value="" style="edgeStyle=orthogonalEdgeStyle;rounded=0;orthogonalLoop=1;jettySize=auto;html=1;" edge="1" parent="1" source="0IQWGOYTsPo2K3X1dr-d-54" target="0IQWGOYTsPo2K3X1dr-d-57">
          <mxGeometry relative="1" as="geometry" />
        </mxCell>
        <mxCell id="0IQWGOYTsPo2K3X1dr-d-54" value="Điều dưỡng vào phòng lấy đơn thuốc" style="rounded=0;whiteSpace=wrap;html=1;" vertex="1" parent="1">
          <mxGeometry x="-40" y="510" width="170" height="70" as="geometry" />
        </mxCell>
        <mxCell id="0IQWGOYTsPo2K3X1dr-d-63" value="" style="edgeStyle=orthogonalEdgeStyle;rounded=0;orthogonalLoop=1;jettySize=auto;html=1;" edge="1" parent="1" source="0IQWGOYTsPo2K3X1dr-d-57" target="0IQWGOYTsPo2K3X1dr-d-62">
          <mxGeometry relative="1" as="geometry" />
        </mxCell>
        <mxCell id="0IQWGOYTsPo2K3X1dr-d-57" value="Điều dưỡng soạn thuốc và đưa khách hàng ra chờ ở Salon" style="rounded=0;whiteSpace=wrap;html=1;" vertex="1" parent="1">
          <mxGeometry x="200" y="515" width="170" height="60" as="geometry" />
        </mxCell>
        <mxCell id="0IQWGOYTsPo2K3X1dr-d-59" value="" style="rounded=0;whiteSpace=wrap;html=1;" vertex="1" parent="1">
          <mxGeometry x="-110" y="230" width="140" height="90" as="geometry" />
        </mxCell>
        <mxCell id="0IQWGOYTsPo2K3X1dr-d-60" value="Máy tính" style="rounded=1;whiteSpace=wrap;html=1;" vertex="1" parent="1">
          <mxGeometry x="-96.25" y="252.5" width="112.5" height="45" as="geometry" />
        </mxCell>
        <mxCell id="0IQWGOYTsPo2K3X1dr-d-61" value="" style="endArrow=none;dashed=1;html=1;rounded=0;exitX=0.5;exitY=0;exitDx=0;exitDy=0;entryX=0.5;entryY=1;entryDx=0;entryDy=0;" edge="1" parent="1" source="0IQWGOYTsPo2K3X1dr-d-48" target="0IQWGOYTsPo2K3X1dr-d-59">
          <mxGeometry width="50" height="50" relative="1" as="geometry">
            <mxPoint x="80" y="280" as="sourcePoint" />
            <mxPoint x="130" y="230" as="targetPoint" />
          </mxGeometry>
        </mxCell>
        <mxCell id="0IQWGOYTsPo2K3X1dr-d-62" value="Điều dưỡng hướng dẫn khách hàng sử dụng thuốc" style="rounded=0;whiteSpace=wrap;html=1;" vertex="1" parent="1">
          <mxGeometry x="200" y="610" width="170" height="60" as="geometry" />
        </mxCell>
        <mxCell id="0IQWGOYTsPo2K3X1dr-d-69" value="" style="edgeStyle=orthogonalEdgeStyle;rounded=0;orthogonalLoop=1;jettySize=auto;html=1;" edge="1" parent="1" source="0IQWGOYTsPo2K3X1dr-d-64" target="0IQWGOYTsPo2K3X1dr-d-68">
          <mxGeometry relative="1" as="geometry" />
        </mxCell>
        <mxCell id="0IQWGOYTsPo2K3X1dr-d-64" value="Lễ tân thanh toán tiền cho khách" style="rounded=0;whiteSpace=wrap;html=1;" vertex="1" parent="1">
          <mxGeometry x="1130" y="338.75" width="200" height="82.5" as="geometry" />
        </mxCell>
        <mxCell id="0IQWGOYTsPo2K3X1dr-d-66" value="Xuất hóa đơn" style="text;html=1;align=center;verticalAlign=middle;whiteSpace=wrap;rounded=0;" vertex="1" parent="1">
          <mxGeometry x="1000" y="347.5" width="80" height="30" as="geometry" />
        </mxCell>
        <mxCell id="0IQWGOYTsPo2K3X1dr-d-67" value="" style="endArrow=classic;html=1;rounded=0;exitX=1;exitY=0.5;exitDx=0;exitDy=0;entryX=0.5;entryY=1;entryDx=0;entryDy=0;" edge="1" parent="1" source="0IQWGOYTsPo2K3X1dr-d-62" target="0IQWGOYTsPo2K3X1dr-d-64">
          <mxGeometry width="50" height="50" relative="1" as="geometry">
            <mxPoint x="690" y="490" as="sourcePoint" />
            <mxPoint x="1240" y="560" as="targetPoint" />
            <Array as="points">
              <mxPoint x="480" y="640" />
              <mxPoint x="480" y="560" />
              <mxPoint x="1230" y="560" />
            </Array>
          </mxGeometry>
        </mxCell>
        <mxCell id="0IQWGOYTsPo2K3X1dr-d-72" value="" style="edgeStyle=orthogonalEdgeStyle;rounded=0;orthogonalLoop=1;jettySize=auto;html=1;" edge="1" parent="1" source="0IQWGOYTsPo2K3X1dr-d-68" target="0IQWGOYTsPo2K3X1dr-d-71">
          <mxGeometry relative="1" as="geometry" />
        </mxCell>
        <mxCell id="0IQWGOYTsPo2K3X1dr-d-68" value="Lễ tân tiễn khách , bảo vệ dắt xe cho khách ra về" style="rounded=0;whiteSpace=wrap;html=1;" vertex="1" parent="1">
          <mxGeometry x="1400" y="341.88" width="220" height="76.25" as="geometry" />
        </mxCell>
        <mxCell id="0IQWGOYTsPo2K3X1dr-d-71" value="Kết thúc" style="rounded=1;whiteSpace=wrap;html=1;" vertex="1" parent="1">
          <mxGeometry x="1690" y="350" width="150" height="60" as="geometry" />
        </mxCell>
      </root>
    </mxGraphModel>
  </diagram>
</mxfile>
